<mxfile host="app.diagrams.net" modified="2022-08-10T07:39:34.831Z" agent="5.0 (Windows NT 10.0; Win64; x64) AppleWebKit/537.36 (KHTML, like Gecko) Chrome/103.0.5060.134 Safari/537.36 Edg/103.0.1264.77" etag="IfT_TOV9kJwaJGkr0O-I" version="20.2.3" type="github">
  <diagram id="QtS9uh31I6VXbAoinTmC" name="第 1 页">
    <mxGraphModel dx="1422" dy="761" grid="1" gridSize="10" guides="1" tooltips="1" connect="1" arrows="1" fold="1" page="1" pageScale="1" pageWidth="827" pageHeight="1169" math="0" shadow="0">
      <root>
        <mxCell id="0" />
        <mxCell id="1" parent="0" />
        <mxCell id="OGKqSfS0VdrP_5y7QQ23-1" value="" style="rounded=1;whiteSpace=wrap;html=1;shadow=0;dashed=1;fontSize=12;fontColor=#00994D;strokeColor=#994C00;strokeWidth=2;fillColor=none;arcSize=7;" vertex="1" parent="1">
          <mxGeometry x="150" y="102" width="480" height="230" as="geometry" />
        </mxCell>
        <mxCell id="OGKqSfS0VdrP_5y7QQ23-2" style="edgeStyle=orthogonalEdgeStyle;rounded=0;orthogonalLoop=1;jettySize=auto;html=1;exitX=1;exitY=0.5;exitDx=0;exitDy=0;entryX=0;entryY=0.5;entryDx=0;entryDy=0;fontSize=15;fontColor=#000000;" edge="1" parent="1" source="OGKqSfS0VdrP_5y7QQ23-3" target="OGKqSfS0VdrP_5y7QQ23-5">
          <mxGeometry relative="1" as="geometry">
            <mxPoint x="240" y="257.0000000000002" as="sourcePoint" />
          </mxGeometry>
        </mxCell>
        <mxCell id="OGKqSfS0VdrP_5y7QQ23-3" value="&lt;font color=&quot;#000000&quot;&gt;=&lt;/font&gt;" style="text;html=1;strokeColor=none;fillColor=none;align=center;verticalAlign=middle;whiteSpace=wrap;rounded=0;shadow=0;dashed=1;fontSize=15;fontColor=#00994D;" vertex="1" parent="1">
          <mxGeometry x="210" y="242" width="20" height="30" as="geometry" />
        </mxCell>
        <mxCell id="OGKqSfS0VdrP_5y7QQ23-4" style="edgeStyle=orthogonalEdgeStyle;rounded=0;orthogonalLoop=1;jettySize=auto;html=1;exitX=1;exitY=0.5;exitDx=0;exitDy=0;entryX=0;entryY=0.5;entryDx=0;entryDy=0;fontSize=15;fontColor=#000000;" edge="1" parent="1" source="OGKqSfS0VdrP_5y7QQ23-5" target="OGKqSfS0VdrP_5y7QQ23-7">
          <mxGeometry relative="1" as="geometry" />
        </mxCell>
        <mxCell id="OGKqSfS0VdrP_5y7QQ23-5" value="CBS" style="rounded=1;whiteSpace=wrap;html=1;fillColor=#fff2cc;strokeColor=#000000;fontSize=13;" vertex="1" parent="1">
          <mxGeometry x="260" y="242" width="50" height="30" as="geometry" />
        </mxCell>
        <mxCell id="OGKqSfS0VdrP_5y7QQ23-6" style="edgeStyle=orthogonalEdgeStyle;rounded=0;orthogonalLoop=1;jettySize=auto;html=1;exitX=1;exitY=0.5;exitDx=0;exitDy=0;fontSize=15;fontColor=#000000;entryX=0;entryY=0.5;entryDx=0;entryDy=0;" edge="1" parent="1" source="OGKqSfS0VdrP_5y7QQ23-7" target="OGKqSfS0VdrP_5y7QQ23-9">
          <mxGeometry relative="1" as="geometry">
            <mxPoint x="440" y="257.3157894736844" as="targetPoint" />
          </mxGeometry>
        </mxCell>
        <mxCell id="OGKqSfS0VdrP_5y7QQ23-7" value="CABottleneck*X" style="rounded=1;whiteSpace=wrap;html=1;fillColor=#00CCCC;strokeColor=#000000;fontSize=13;" vertex="1" parent="1">
          <mxGeometry x="330" y="242" width="95" height="30" as="geometry" />
        </mxCell>
        <mxCell id="OGKqSfS0VdrP_5y7QQ23-8" style="edgeStyle=orthogonalEdgeStyle;rounded=0;orthogonalLoop=1;jettySize=auto;html=1;exitX=1;exitY=0.5;exitDx=0;exitDy=0;entryX=0;entryY=0.5;entryDx=0;entryDy=0;fontSize=15;fontColor=#000000;" edge="1" parent="1" source="OGKqSfS0VdrP_5y7QQ23-9" target="OGKqSfS0VdrP_5y7QQ23-11">
          <mxGeometry relative="1" as="geometry" />
        </mxCell>
        <mxCell id="OGKqSfS0VdrP_5y7QQ23-9" value="Concat" style="rounded=1;whiteSpace=wrap;html=1;fillColor=#FFD966;strokeColor=#000000;" vertex="1" parent="1">
          <mxGeometry x="444" y="242" width="80" height="30" as="geometry" />
        </mxCell>
        <mxCell id="OGKqSfS0VdrP_5y7QQ23-10" style="edgeStyle=orthogonalEdgeStyle;rounded=0;orthogonalLoop=1;jettySize=auto;html=1;exitX=1;exitY=0.5;exitDx=0;exitDy=0;fontSize=15;fontColor=#000000;" edge="1" parent="1">
          <mxGeometry relative="1" as="geometry">
            <mxPoint x="620" y="256.57000000000016" as="targetPoint" />
            <mxPoint x="591.5" y="256.57000000000016" as="sourcePoint" />
          </mxGeometry>
        </mxCell>
        <mxCell id="OGKqSfS0VdrP_5y7QQ23-11" value="CBS" style="rounded=1;whiteSpace=wrap;html=1;fillColor=#fff2cc;strokeColor=#000000;fontSize=13;" vertex="1" parent="1">
          <mxGeometry x="541.5" y="242" width="50" height="30" as="geometry" />
        </mxCell>
        <mxCell id="OGKqSfS0VdrP_5y7QQ23-12" style="edgeStyle=orthogonalEdgeStyle;rounded=0;orthogonalLoop=1;jettySize=auto;html=1;exitX=1;exitY=0.5;exitDx=0;exitDy=0;entryX=0.5;entryY=1;entryDx=0;entryDy=0;fontSize=15;fontColor=#000000;" edge="1" parent="1" source="OGKqSfS0VdrP_5y7QQ23-13" target="OGKqSfS0VdrP_5y7QQ23-9">
          <mxGeometry relative="1" as="geometry" />
        </mxCell>
        <mxCell id="OGKqSfS0VdrP_5y7QQ23-13" value="CBS" style="rounded=1;whiteSpace=wrap;html=1;fillColor=#fff2cc;strokeColor=#000000;fontSize=13;" vertex="1" parent="1">
          <mxGeometry x="352.5" y="292" width="50" height="30" as="geometry" />
        </mxCell>
        <mxCell id="OGKqSfS0VdrP_5y7QQ23-14" value="" style="endArrow=classic;html=1;rounded=0;fontSize=15;fontColor=#000000;entryX=0;entryY=0.5;entryDx=0;entryDy=0;" edge="1" parent="1" target="OGKqSfS0VdrP_5y7QQ23-13">
          <mxGeometry width="50" height="50" relative="1" as="geometry">
            <mxPoint x="240" y="257" as="sourcePoint" />
            <mxPoint x="352.5" y="302" as="targetPoint" />
            <Array as="points">
              <mxPoint x="240" y="307" />
            </Array>
          </mxGeometry>
        </mxCell>
        <mxCell id="OGKqSfS0VdrP_5y7QQ23-28" value="&lt;b style=&quot;&quot;&gt;&lt;font color=&quot;#994c00&quot; style=&quot;font-size: 15px;&quot;&gt;C3&lt;/font&gt;&lt;/b&gt;" style="text;html=1;strokeColor=none;fillColor=none;align=center;verticalAlign=middle;whiteSpace=wrap;rounded=0;shadow=0;dashed=1;" vertex="1" parent="1">
          <mxGeometry x="351.25" y="100" width="60" height="30" as="geometry" />
        </mxCell>
        <mxCell id="OGKqSfS0VdrP_5y7QQ23-30" value="&lt;font color=&quot;#ffffff&quot;&gt;C3CA_X&lt;/font&gt;" style="rounded=1;whiteSpace=wrap;html=1;fillColor=#6666FF;strokeColor=#000000;fontSize=13;" vertex="1" parent="1">
          <mxGeometry x="160" y="240" width="50" height="30" as="geometry" />
        </mxCell>
        <mxCell id="OGKqSfS0VdrP_5y7QQ23-31" value="C3_1_X" style="rounded=1;whiteSpace=wrap;html=1;fillColor=#99FFFF;strokeColor=#000000;fontSize=13;" vertex="1" parent="1">
          <mxGeometry x="160" y="130" width="50" height="30" as="geometry" />
        </mxCell>
        <mxCell id="OGKqSfS0VdrP_5y7QQ23-32" style="edgeStyle=orthogonalEdgeStyle;rounded=0;orthogonalLoop=1;jettySize=auto;html=1;exitX=1;exitY=0.5;exitDx=0;exitDy=0;entryX=0;entryY=0.5;entryDx=0;entryDy=0;fontSize=15;fontColor=#000000;" edge="1" parent="1" source="OGKqSfS0VdrP_5y7QQ23-33" target="OGKqSfS0VdrP_5y7QQ23-35">
          <mxGeometry relative="1" as="geometry">
            <mxPoint x="240" y="145.00000000000023" as="sourcePoint" />
          </mxGeometry>
        </mxCell>
        <mxCell id="OGKqSfS0VdrP_5y7QQ23-33" value="&lt;font color=&quot;#000000&quot;&gt;=&lt;/font&gt;" style="text;html=1;strokeColor=none;fillColor=none;align=center;verticalAlign=middle;whiteSpace=wrap;rounded=0;shadow=0;dashed=1;fontSize=15;fontColor=#00994D;" vertex="1" parent="1">
          <mxGeometry x="210" y="130" width="20" height="30" as="geometry" />
        </mxCell>
        <mxCell id="OGKqSfS0VdrP_5y7QQ23-34" style="edgeStyle=orthogonalEdgeStyle;rounded=0;orthogonalLoop=1;jettySize=auto;html=1;exitX=1;exitY=0.5;exitDx=0;exitDy=0;entryX=0;entryY=0.5;entryDx=0;entryDy=0;fontSize=15;fontColor=#000000;" edge="1" parent="1" source="OGKqSfS0VdrP_5y7QQ23-35" target="OGKqSfS0VdrP_5y7QQ23-37">
          <mxGeometry relative="1" as="geometry" />
        </mxCell>
        <mxCell id="OGKqSfS0VdrP_5y7QQ23-35" value="CBS" style="rounded=1;whiteSpace=wrap;html=1;fillColor=#fff2cc;strokeColor=#000000;fontSize=13;" vertex="1" parent="1">
          <mxGeometry x="260" y="130" width="50" height="30" as="geometry" />
        </mxCell>
        <mxCell id="OGKqSfS0VdrP_5y7QQ23-36" style="edgeStyle=orthogonalEdgeStyle;rounded=0;orthogonalLoop=1;jettySize=auto;html=1;exitX=1;exitY=0.5;exitDx=0;exitDy=0;fontSize=15;fontColor=#000000;entryX=0;entryY=0.5;entryDx=0;entryDy=0;" edge="1" parent="1" source="OGKqSfS0VdrP_5y7QQ23-37" target="OGKqSfS0VdrP_5y7QQ23-39">
          <mxGeometry relative="1" as="geometry">
            <mxPoint x="440" y="145.3157894736844" as="targetPoint" />
          </mxGeometry>
        </mxCell>
        <mxCell id="OGKqSfS0VdrP_5y7QQ23-37" value="Bottleneck1*X" style="rounded=1;whiteSpace=wrap;html=1;fillColor=#99CCFF;strokeColor=#000000;fontSize=13;" vertex="1" parent="1">
          <mxGeometry x="330" y="130" width="95" height="30" as="geometry" />
        </mxCell>
        <mxCell id="OGKqSfS0VdrP_5y7QQ23-38" style="edgeStyle=orthogonalEdgeStyle;rounded=0;orthogonalLoop=1;jettySize=auto;html=1;exitX=1;exitY=0.5;exitDx=0;exitDy=0;entryX=0;entryY=0.5;entryDx=0;entryDy=0;fontSize=15;fontColor=#000000;" edge="1" parent="1" source="OGKqSfS0VdrP_5y7QQ23-39" target="OGKqSfS0VdrP_5y7QQ23-41">
          <mxGeometry relative="1" as="geometry" />
        </mxCell>
        <mxCell id="OGKqSfS0VdrP_5y7QQ23-39" value="Concat" style="rounded=1;whiteSpace=wrap;html=1;fillColor=#FFD966;strokeColor=#000000;" vertex="1" parent="1">
          <mxGeometry x="444" y="130" width="80" height="30" as="geometry" />
        </mxCell>
        <mxCell id="OGKqSfS0VdrP_5y7QQ23-40" style="edgeStyle=orthogonalEdgeStyle;rounded=0;orthogonalLoop=1;jettySize=auto;html=1;exitX=1;exitY=0.5;exitDx=0;exitDy=0;fontSize=15;fontColor=#000000;" edge="1" parent="1">
          <mxGeometry relative="1" as="geometry">
            <mxPoint x="620" y="144.57000000000016" as="targetPoint" />
            <mxPoint x="591.5" y="144.57000000000016" as="sourcePoint" />
          </mxGeometry>
        </mxCell>
        <mxCell id="OGKqSfS0VdrP_5y7QQ23-41" value="CBS" style="rounded=1;whiteSpace=wrap;html=1;fillColor=#fff2cc;strokeColor=#000000;fontSize=13;" vertex="1" parent="1">
          <mxGeometry x="541.5" y="130" width="50" height="30" as="geometry" />
        </mxCell>
        <mxCell id="OGKqSfS0VdrP_5y7QQ23-42" style="edgeStyle=orthogonalEdgeStyle;rounded=0;orthogonalLoop=1;jettySize=auto;html=1;exitX=1;exitY=0.5;exitDx=0;exitDy=0;entryX=0.5;entryY=1;entryDx=0;entryDy=0;fontSize=15;fontColor=#000000;" edge="1" parent="1" source="OGKqSfS0VdrP_5y7QQ23-43" target="OGKqSfS0VdrP_5y7QQ23-39">
          <mxGeometry relative="1" as="geometry" />
        </mxCell>
        <mxCell id="OGKqSfS0VdrP_5y7QQ23-43" value="CBS" style="rounded=1;whiteSpace=wrap;html=1;fillColor=#fff2cc;strokeColor=#000000;fontSize=13;" vertex="1" parent="1">
          <mxGeometry x="356.25" y="170" width="50" height="30" as="geometry" />
        </mxCell>
        <mxCell id="OGKqSfS0VdrP_5y7QQ23-44" value="" style="endArrow=classic;html=1;rounded=0;fontSize=15;fontColor=#000000;entryX=0;entryY=0.5;entryDx=0;entryDy=0;" edge="1" parent="1" target="OGKqSfS0VdrP_5y7QQ23-43">
          <mxGeometry width="50" height="50" relative="1" as="geometry">
            <mxPoint x="240" y="145" as="sourcePoint" />
            <mxPoint x="352.5" y="190" as="targetPoint" />
            <Array as="points">
              <mxPoint x="240" y="195" />
              <mxPoint x="240" y="185" />
            </Array>
          </mxGeometry>
        </mxCell>
        <mxCell id="OGKqSfS0VdrP_5y7QQ23-45" value="" style="rounded=1;whiteSpace=wrap;html=1;shadow=0;dashed=1;fontSize=12;fontColor=#00994D;strokeColor=#66B2FF;strokeWidth=2;fillColor=none;arcSize=7;" vertex="1" parent="1">
          <mxGeometry x="150" y="340" width="477.27" height="180" as="geometry" />
        </mxCell>
        <mxCell id="OGKqSfS0VdrP_5y7QQ23-46" style="edgeStyle=orthogonalEdgeStyle;rounded=0;orthogonalLoop=1;jettySize=auto;html=1;exitX=1;exitY=0.5;exitDx=0;exitDy=0;entryX=0;entryY=0.5;entryDx=0;entryDy=0;fontSize=15;fontColor=#994C00;" edge="1" parent="1" source="OGKqSfS0VdrP_5y7QQ23-47" target="OGKqSfS0VdrP_5y7QQ23-49">
          <mxGeometry relative="1" as="geometry" />
        </mxCell>
        <mxCell id="OGKqSfS0VdrP_5y7QQ23-47" value="&lt;font color=&quot;#000000&quot;&gt;=&lt;/font&gt;" style="text;html=1;strokeColor=none;fillColor=none;align=center;verticalAlign=middle;whiteSpace=wrap;rounded=0;shadow=0;dashed=1;fontSize=15;fontColor=#00994D;" vertex="1" parent="1">
          <mxGeometry x="273.02" y="460" width="20" height="30" as="geometry" />
        </mxCell>
        <mxCell id="OGKqSfS0VdrP_5y7QQ23-48" style="edgeStyle=orthogonalEdgeStyle;rounded=0;orthogonalLoop=1;jettySize=auto;html=1;exitX=1;exitY=0.5;exitDx=0;exitDy=0;entryX=0;entryY=0.5;entryDx=0;entryDy=0;fontSize=15;fontColor=#994C00;" edge="1" parent="1" source="OGKqSfS0VdrP_5y7QQ23-49" target="OGKqSfS0VdrP_5y7QQ23-51">
          <mxGeometry relative="1" as="geometry" />
        </mxCell>
        <mxCell id="OGKqSfS0VdrP_5y7QQ23-49" value="CBS" style="rounded=1;whiteSpace=wrap;html=1;fillColor=#fff2cc;strokeColor=#000000;fontSize=13;" vertex="1" parent="1">
          <mxGeometry x="317.01" y="460" width="50" height="30" as="geometry" />
        </mxCell>
        <mxCell id="OGKqSfS0VdrP_5y7QQ23-50" style="edgeStyle=orthogonalEdgeStyle;rounded=0;orthogonalLoop=1;jettySize=auto;html=1;exitX=1;exitY=0.5;exitDx=0;exitDy=0;entryX=0;entryY=0.5;entryDx=0;entryDy=0;fontSize=15;fontColor=#FFFFFF;" edge="1" parent="1" source="OGKqSfS0VdrP_5y7QQ23-51" target="OGKqSfS0VdrP_5y7QQ23-65">
          <mxGeometry relative="1" as="geometry" />
        </mxCell>
        <mxCell id="OGKqSfS0VdrP_5y7QQ23-51" value="CBS" style="rounded=1;whiteSpace=wrap;html=1;fillColor=#fff2cc;strokeColor=#000000;fontSize=13;" vertex="1" parent="1">
          <mxGeometry x="382.01" y="460" width="50" height="30" as="geometry" />
        </mxCell>
        <mxCell id="OGKqSfS0VdrP_5y7QQ23-52" value="" style="edgeStyle=orthogonalEdgeStyle;rounded=0;orthogonalLoop=1;jettySize=auto;html=1;fontSize=15;fontColor=#FFFFFF;" edge="1" parent="1" source="OGKqSfS0VdrP_5y7QQ23-53">
          <mxGeometry relative="1" as="geometry">
            <mxPoint x="582.5199999999998" y="475" as="targetPoint" />
          </mxGeometry>
        </mxCell>
        <mxCell id="OGKqSfS0VdrP_5y7QQ23-53" value="" style="shape=orEllipse;perimeter=ellipsePerimeter;whiteSpace=wrap;html=1;backgroundOutline=1;rounded=1;shadow=0;fontSize=15;fontColor=#994C00;strokeColor=#000000;strokeWidth=2;fillColor=none;" vertex="1" parent="1">
          <mxGeometry x="536.27" y="466.25" width="17.5" height="17.5" as="geometry" />
        </mxCell>
        <mxCell id="OGKqSfS0VdrP_5y7QQ23-54" value="" style="endArrow=classic;html=1;rounded=0;fontSize=15;fontColor=#000000;entryX=0.5;entryY=1;entryDx=0;entryDy=0;" edge="1" parent="1" target="OGKqSfS0VdrP_5y7QQ23-53">
          <mxGeometry width="50" height="50" relative="1" as="geometry">
            <mxPoint x="303.01999999999975" y="475" as="sourcePoint" />
            <mxPoint x="415.52" y="525" as="targetPoint" />
            <Array as="points">
              <mxPoint x="303.02" y="510" />
              <mxPoint x="383.02" y="510" />
              <mxPoint x="544.77" y="510" />
            </Array>
          </mxGeometry>
        </mxCell>
        <mxCell id="OGKqSfS0VdrP_5y7QQ23-62" value="&lt;font color=&quot;#66b2ff&quot; style=&quot;font-size: 15px;&quot;&gt;&lt;b style=&quot;&quot;&gt;Bottleneck&lt;/b&gt;&lt;/font&gt;" style="text;html=1;strokeColor=none;fillColor=none;align=center;verticalAlign=middle;whiteSpace=wrap;rounded=0;shadow=0;dashed=1;" vertex="1" parent="1">
          <mxGeometry x="339.14" y="340" width="98.99" height="30" as="geometry" />
        </mxCell>
        <mxCell id="OGKqSfS0VdrP_5y7QQ23-63" value="CABottleneck" style="rounded=1;whiteSpace=wrap;html=1;fillColor=#00CCCC;strokeColor=#000000;fontSize=13;" vertex="1" parent="1">
          <mxGeometry x="179.98999999999998" y="460" width="95" height="30" as="geometry" />
        </mxCell>
        <mxCell id="OGKqSfS0VdrP_5y7QQ23-64" style="edgeStyle=orthogonalEdgeStyle;rounded=0;orthogonalLoop=1;jettySize=auto;html=1;exitX=1;exitY=0.5;exitDx=0;exitDy=0;entryX=0;entryY=0.5;entryDx=0;entryDy=0;fontSize=15;fontColor=#FFFFFF;" edge="1" parent="1" source="OGKqSfS0VdrP_5y7QQ23-65" target="OGKqSfS0VdrP_5y7QQ23-53">
          <mxGeometry relative="1" as="geometry" />
        </mxCell>
        <mxCell id="OGKqSfS0VdrP_5y7QQ23-65" value="CA" style="rounded=1;whiteSpace=wrap;html=1;fillColor=#FFFFFF;strokeColor=#000000;fontSize=13;" vertex="1" parent="1">
          <mxGeometry x="456.77" y="460" width="50" height="30" as="geometry" />
        </mxCell>
        <mxCell id="OGKqSfS0VdrP_5y7QQ23-66" value="" style="shape=flexArrow;endArrow=classic;html=1;rounded=0;fillColor=#dae8fc;strokeColor=#6c8ebf;" edge="1" parent="1">
          <mxGeometry width="50" height="50" relative="1" as="geometry">
            <mxPoint x="380.75" y="207" as="sourcePoint" />
            <mxPoint x="380.75" y="237" as="targetPoint" />
          </mxGeometry>
        </mxCell>
        <mxCell id="OGKqSfS0VdrP_5y7QQ23-68" value="" style="shape=flexArrow;endArrow=classic;html=1;rounded=0;fillColor=#dae8fc;strokeColor=#6c8ebf;" edge="1" parent="1">
          <mxGeometry width="50" height="50" relative="1" as="geometry">
            <mxPoint x="380.75" y="426" as="sourcePoint" />
            <mxPoint x="380.75" y="456" as="targetPoint" />
          </mxGeometry>
        </mxCell>
        <mxCell id="OGKqSfS0VdrP_5y7QQ23-69" value="Bottleneck1" style="rounded=1;whiteSpace=wrap;html=1;fillColor=#99CCFF;strokeColor=#000000;fontSize=13;" vertex="1" parent="1">
          <mxGeometry x="228.01" y="370" width="95" height="30" as="geometry" />
        </mxCell>
        <mxCell id="OGKqSfS0VdrP_5y7QQ23-70" style="edgeStyle=orthogonalEdgeStyle;rounded=0;orthogonalLoop=1;jettySize=auto;html=1;exitX=1;exitY=0.5;exitDx=0;exitDy=0;entryX=0;entryY=0.5;entryDx=0;entryDy=0;fontSize=15;fontColor=#994C00;" edge="1" parent="1" source="OGKqSfS0VdrP_5y7QQ23-71" target="OGKqSfS0VdrP_5y7QQ23-73">
          <mxGeometry relative="1" as="geometry" />
        </mxCell>
        <mxCell id="OGKqSfS0VdrP_5y7QQ23-71" value="&lt;font color=&quot;#000000&quot;&gt;=&lt;/font&gt;" style="text;html=1;strokeColor=none;fillColor=none;align=center;verticalAlign=middle;whiteSpace=wrap;rounded=0;shadow=0;dashed=1;fontSize=15;fontColor=#00994D;" vertex="1" parent="1">
          <mxGeometry x="323.01" y="370" width="20" height="30" as="geometry" />
        </mxCell>
        <mxCell id="OGKqSfS0VdrP_5y7QQ23-72" style="edgeStyle=orthogonalEdgeStyle;rounded=0;orthogonalLoop=1;jettySize=auto;html=1;exitX=1;exitY=0.5;exitDx=0;exitDy=0;entryX=0;entryY=0.5;entryDx=0;entryDy=0;fontSize=15;fontColor=#994C00;" edge="1" parent="1" source="OGKqSfS0VdrP_5y7QQ23-73" target="OGKqSfS0VdrP_5y7QQ23-75">
          <mxGeometry relative="1" as="geometry" />
        </mxCell>
        <mxCell id="OGKqSfS0VdrP_5y7QQ23-73" value="CBS" style="rounded=1;whiteSpace=wrap;html=1;fillColor=#fff2cc;strokeColor=#000000;fontSize=13;" vertex="1" parent="1">
          <mxGeometry x="367" y="370" width="50" height="30" as="geometry" />
        </mxCell>
        <mxCell id="OGKqSfS0VdrP_5y7QQ23-74" style="edgeStyle=orthogonalEdgeStyle;rounded=0;orthogonalLoop=1;jettySize=auto;html=1;exitX=1;exitY=0.5;exitDx=0;exitDy=0;entryX=0;entryY=0.5;entryDx=0;entryDy=0;fontSize=15;fontColor=#994C00;" edge="1" parent="1" source="OGKqSfS0VdrP_5y7QQ23-75" target="OGKqSfS0VdrP_5y7QQ23-77">
          <mxGeometry relative="1" as="geometry" />
        </mxCell>
        <mxCell id="OGKqSfS0VdrP_5y7QQ23-75" value="CBS" style="rounded=1;whiteSpace=wrap;html=1;fillColor=#fff2cc;strokeColor=#000000;fontSize=13;" vertex="1" parent="1">
          <mxGeometry x="432" y="370" width="50" height="30" as="geometry" />
        </mxCell>
        <mxCell id="OGKqSfS0VdrP_5y7QQ23-76" style="edgeStyle=orthogonalEdgeStyle;rounded=0;orthogonalLoop=1;jettySize=auto;html=1;exitX=1;exitY=0.5;exitDx=0;exitDy=0;fontSize=15;fontColor=#994C00;" edge="1" parent="1" source="OGKqSfS0VdrP_5y7QQ23-77">
          <mxGeometry relative="1" as="geometry">
            <mxPoint x="551.9999999999998" y="385.39130434782624" as="targetPoint" />
          </mxGeometry>
        </mxCell>
        <mxCell id="OGKqSfS0VdrP_5y7QQ23-77" value="" style="shape=orEllipse;perimeter=ellipsePerimeter;whiteSpace=wrap;html=1;backgroundOutline=1;rounded=1;shadow=0;fontSize=15;fontColor=#994C00;strokeColor=#000000;strokeWidth=2;fillColor=none;" vertex="1" parent="1">
          <mxGeometry x="503.5" y="376.25" width="17.5" height="17.5" as="geometry" />
        </mxCell>
        <mxCell id="OGKqSfS0VdrP_5y7QQ23-78" value="" style="endArrow=classic;html=1;rounded=0;fontSize=15;fontColor=#000000;entryX=0.5;entryY=1;entryDx=0;entryDy=0;" edge="1" parent="1" target="OGKqSfS0VdrP_5y7QQ23-77">
          <mxGeometry width="50" height="50" relative="1" as="geometry">
            <mxPoint x="353.01" y="385" as="sourcePoint" />
            <mxPoint x="465.51" y="435" as="targetPoint" />
            <Array as="points">
              <mxPoint x="353.01" y="420" />
              <mxPoint x="433.01" y="420" />
              <mxPoint x="512.01" y="420" />
            </Array>
          </mxGeometry>
        </mxCell>
      </root>
    </mxGraphModel>
  </diagram>
</mxfile>
